<?xml version="1.0" encoding="iso-8859-1"?>
<!-- Generator: Adobe Illustrator 19.0.0, SVG Export Plug-In . SVG Version: 6.00 Build 0)  -->
<svg version="1.1" id="Layer_1" xmlns="http://www.w3.org/2000/svg" xmlns:xlink="http://www.w3.org/1999/xlink" x="0px" y="0px"
	 viewBox="0 0 511.999 511.999" style="enable-background:new 0 0 511.999 511.999;" xml:space="preserve">
<g>
	<g>
		<path d="M429.68,77.566c-16.845,0-30.551,13.705-30.551,30.551c0,7.496,2.718,14.365,7.213,19.686L378.403,169.2
			c-2.574,3.815-1.569,8.993,2.245,11.568c1.429,0.964,3.05,1.426,4.653,1.426c2.675,0,5.304-1.288,6.915-3.672l27.931-41.385
			c3.002,0.989,6.204,1.531,9.532,1.531c16.845,0,30.551-13.705,30.551-30.551C460.23,91.272,446.525,77.566,429.68,77.566z
			 M429.68,122.004c-7.658,0-13.887-6.229-13.887-13.887c0-7.658,6.229-13.887,13.887-13.887c7.658,0,13.887,6.229,13.887,13.887
			C443.567,115.775,437.336,122.004,429.68,122.004z"/>
	</g>
</g>
<g>
	<g>
		<path d="M374.448,189.954c-3.814-2.573-8.993-1.569-11.567,2.245l-39.452,58.454c-3.002-0.989-6.205-1.532-9.534-1.532
			c-6.849,0-13.179,2.266-18.28,6.087l-69.1-52.827c1.379-3.477,2.145-7.261,2.145-11.224c0-16.846-13.705-30.551-30.551-30.551
			c-16.846,0-30.551,13.705-30.551,30.551c0,4.95,1.191,9.625,3.29,13.766l-72.555,66.765c-4.65-2.863-10.12-4.519-15.97-4.519
			c-16.846,0-30.551,13.705-30.551,30.551s13.705,30.551,30.551,30.551c16.846,0,30.551-13.705,30.551-30.551
			c0-4.953-1.192-9.631-3.294-13.772l72.552-66.761c4.651,2.866,10.123,4.524,15.977,4.524c6.851,0,13.181-2.267,18.284-6.09
			l69.099,52.826c-1.38,3.478-2.147,7.265-2.147,11.228c0,16.846,13.706,30.551,30.551,30.551c16.845,0,30.551-13.705,30.551-30.551
			c0-7.494-2.717-14.363-7.212-19.684l39.46-58.467C379.268,197.707,378.262,192.528,374.448,189.954z M82.322,311.606
			c-7.658,0-13.887-6.229-13.887-13.887c0-7.658,6.229-13.887,13.887-13.887c7.658,0,13.887,6.229,13.887,13.887
			C96.209,305.377,89.98,311.606,82.322,311.606z M198.108,205.045c-7.658,0-13.887-6.23-13.887-13.887
			c0-7.658,6.229-13.887,13.887-13.887c7.658,0,13.887,6.229,13.887,13.887C211.995,198.816,205.766,205.045,198.108,205.045z
			 M313.894,293.56c-7.658,0-13.887-6.229-13.887-13.887c0-7.658,6.229-13.887,13.887-13.887c7.658,0,13.887,6.229,13.887,13.887
			C327.781,287.331,321.551,293.56,313.894,293.56z"/>
	</g>
</g>
<g>
	<g>
		<path d="M471.246,24.766H40.754C18.283,24.766,0,43.049,0,65.52v59.227c0,4.602,3.731,8.332,8.332,8.332
			c4.601,0,8.332-3.731,8.332-8.332V65.52c0-13.284,10.807-24.09,24.09-24.09h430.492c13.284,0,24.09,10.807,24.09,24.09v284.411
			h-52.21c-4.602,0-8.332,3.731-8.332,8.332s3.731,8.332,8.332,8.332h52.21v15.273c0,13.284-10.807,24.09-24.09,24.09h-155.41
			H196.164H40.754c-13.284,0-24.09-10.807-24.09-24.09v-15.273h398.688c4.602,0,8.332-3.731,8.332-8.332s-3.731-8.332-8.332-8.332
			H16.664V152.522c0-4.602-3.731-8.332-8.332-8.332c-4.601,0-8.332,3.73-8.332,8.332V381.87c0,22.472,18.283,40.754,40.754,40.754
			H183.54l-20.494,47.945h-40.034c-4.602,0-8.332,3.731-8.332,8.332s3.731,8.332,8.332,8.332h265.975
			c4.602,0,8.332-3.731,8.332-8.332s-3.731-8.332-8.332-8.332h-40.034l-20.494-47.945h142.786c22.472,0,40.754-18.282,40.754-40.754
			V65.52C512,43.049,493.717,24.766,471.246,24.766z M330.83,470.568H181.17l14.238-33.31h121.185L330.83,470.568z"/>
	</g>
</g>
<g>
	<g>
		<path d="M262.924,379.679c-1.914-2.906-5.583-4.299-8.952-3.457c-3.517,0.879-6.116,4.048-6.291,7.67
			c-0.364,7.534,9.106,11.629,14.33,6.172C264.674,387.282,265.089,382.887,262.924,379.679z"/>
	</g>
</g>
<g>
</g>
<g>
</g>
<g>
</g>
<g>
</g>
<g>
</g>
<g>
</g>
<g>
</g>
<g>
</g>
<g>
</g>
<g>
</g>
<g>
</g>
<g>
</g>
<g>
</g>
<g>
</g>
<g>
</g>
</svg>
