<?xml version="1.0" encoding="iso-8859-1"?>
<!-- Generator: Adobe Illustrator 19.0.0, SVG Export Plug-In . SVG Version: 6.00 Build 0)  -->
<svg version="1.1" id="Capa_1" xmlns="http://www.w3.org/2000/svg" xmlns:xlink="http://www.w3.org/1999/xlink" x="0px" y="0px"
	 viewBox="0 0 512 512" style="enable-background:new 0 0 512 512;" xml:space="preserve">
<g>
	<g>
		<path d="M312.917,96.623c-5.568-1.984-11.669,0.896-13.632,6.464L192.619,401.753c-1.984,5.547,0.917,11.648,6.464,13.632
			c1.173,0.405,2.389,0.619,3.584,0.619c4.395,0,8.491-2.709,10.048-7.083l106.667-298.667
			C321.365,104.708,318.464,98.607,312.917,96.623z"/>
	</g>
</g>
<g>
	<g>
		<path d="M164.203,310.191L37.76,256.004l126.443-54.187c5.419-2.325,7.915-8.597,5.589-14.016
			c-2.304-5.419-8.64-7.915-13.995-5.611l-149.333,64C2.539,247.876,0,251.737,0,256.004c0,4.267,2.539,8.128,6.464,9.813
			l149.333,64c1.365,0.576,2.795,0.853,4.203,0.853c4.139,0,8.064-2.411,9.813-6.464
			C172.139,318.788,169.621,312.516,164.203,310.191z"/>
	</g>
</g>
<g>
	<g>
		<path d="M505.536,246.191l-149.333-64c-5.355-2.283-11.691,0.192-13.995,5.611c-2.325,5.419,0.192,11.691,5.611,14.016
			l126.443,54.187l-126.443,54.187c-5.419,2.325-7.936,8.597-5.611,14.016c1.728,4.053,5.653,6.464,9.792,6.464
			c1.408,0,2.837-0.277,4.203-0.853l149.333-64c3.925-1.685,6.464-5.547,6.464-9.813C512,251.737,509.461,247.876,505.536,246.191z"
			/>
	</g>
</g>
<g>
</g>
<g>
</g>
<g>
</g>
<g>
</g>
<g>
</g>
<g>
</g>
<g>
</g>
<g>
</g>
<g>
</g>
<g>
</g>
<g>
</g>
<g>
</g>
<g>
</g>
<g>
</g>
<g>
</g>
</svg>
