<?xml version="1.0" encoding="iso-8859-1"?>
<!-- Generator: Adobe Illustrator 19.0.0, SVG Export Plug-In . SVG Version: 6.00 Build 0)  -->
<svg version="1.1" id="Capa_1" xmlns="http://www.w3.org/2000/svg" xmlns:xlink="http://www.w3.org/1999/xlink" x="0px" y="0px"
	 viewBox="0 0 512 512" style="enable-background:new 0 0 512 512;" xml:space="preserve">
<g>
	<g>
		<path d="M426.667,213.333H149.333c-5.888,0-10.667,4.779-10.667,10.667v234.667C138.667,488.064,162.603,512,192,512h192
			c29.397,0,53.333-23.936,53.333-53.333V224C437.333,218.112,432.555,213.333,426.667,213.333z M416,458.667
			c0,17.643-14.357,32-32,32H192c-17.643,0-32-14.357-32-32v-224h256V458.667z"/>
	</g>
</g>
<g>
	<g>
		<path d="M320,0h-85.333C228.779,0,224,4.779,224,10.667V224c0,5.888,4.779,10.667,10.667,10.667s10.667-4.779,10.667-10.667
			V21.333h64V224c0,5.888,4.779,10.667,10.667,10.667s10.667-4.779,10.667-10.667V10.667C330.667,4.779,325.888,0,320,0z"/>
	</g>
</g>
<g>
	<g>
		<path d="M277.333,170.667h-42.667c-5.888,0-10.667,4.779-10.667,10.667S228.779,192,234.667,192h42.667
			c5.888,0,10.667-4.779,10.667-10.667S283.221,170.667,277.333,170.667z"/>
	</g>
</g>
<g>
	<g>
		<path d="M256,128h-21.333c-5.888,0-10.667,4.779-10.667,10.667s4.779,10.667,10.667,10.667H256
			c5.888,0,10.667-4.779,10.667-10.667S261.888,128,256,128z"/>
	</g>
</g>
<g>
	<g>
		<path d="M277.333,85.333h-42.667C228.779,85.333,224,90.112,224,96s4.779,10.667,10.667,10.667h42.667
			c5.888,0,10.667-4.779,10.667-10.667S283.221,85.333,277.333,85.333z"/>
	</g>
</g>
<g>
	<g>
		<path d="M256,42.667h-21.333c-5.888,0-10.667,4.779-10.667,10.667S228.779,64,234.667,64H256c5.888,0,10.667-4.779,10.667-10.667
			S261.888,42.667,256,42.667z"/>
	</g>
</g>
<g>
	<g>
		<path d="M222.635,218.816l-53.333-96c-2.859-5.141-9.365-6.997-14.507-4.139c-5.141,2.88-6.997,9.365-4.139,14.507l53.333,96
			c1.963,3.499,5.589,5.483,9.344,5.483c1.771,0,3.541-0.427,5.163-1.344C223.637,230.443,225.493,223.957,222.635,218.816z"/>
	</g>
</g>
<g>
	<g>
		<path d="M180.651,220.245l-32-85.333c-2.069-5.504-8.235-8.256-13.739-6.229c-5.504,2.069-8.299,8.213-6.229,13.739l32,85.333
			c1.6,4.267,5.675,6.912,9.984,6.912c1.259,0,2.517-0.213,3.755-0.683C179.925,231.915,182.72,225.771,180.651,220.245z"/>
	</g>
</g>
<g>
	<g>
		<path d="M167.552,59.264C162.581,52.587,160,48.832,160,42.667v-32C160,4.779,155.221,0,149.333,0
			C99.605,0,74.667,54.699,74.667,85.333c0,30.912,21.419,64,53.333,64c32.896,0,53.333-20.437,53.333-53.333
			C181.333,77.803,173.696,67.541,167.552,59.264z M128,128c-20.608,0-32-25.237-32-42.667c0-15.829,13.227-54.848,42.667-62.635
			v19.968c0,13.525,6.229,21.909,11.755,29.333C155.776,79.189,160,84.885,160,96C160,117.227,149.227,128,128,128z"/>
	</g>
</g>
<g>
	<g>
		<path d="M454.229,87.339c-2.795-2.005-6.357-2.56-9.6-1.451l-64,21.333c-2.048,0.661-3.861,1.963-5.163,3.712l-64,85.333
			c-3.541,4.715-2.581,11.392,2.133,14.933c4.715,3.563,11.413,2.603,14.933-2.133l61.995-82.667l46.805-15.595v45.973
			l-40.875,61.312c-3.264,4.907-1.941,11.52,2.965,14.784c1.835,1.216,3.883,1.792,5.909,1.792c3.435,0,6.827-1.664,8.875-4.757
			l42.667-64c1.173-1.749,1.792-3.797,1.792-5.909V96C458.667,92.565,457.024,89.344,454.229,87.339z"/>
	</g>
</g>
<g>
	<g>
		<path d="M453.909,151.125l-64-42.667c-4.928-3.264-11.541-1.941-14.784,2.965c-3.264,4.907-1.941,11.52,2.965,14.784l64,42.667
			c1.835,1.216,3.883,1.792,5.909,1.792c3.435,0,6.827-1.664,8.875-4.757C460.139,161.003,458.816,154.389,453.909,151.125z"/>
	</g>
</g>
<g>
	<g>
		<path d="M149.333,384H128c-29.397,0-53.333-23.936-53.333-53.333S98.603,277.333,128,277.333h21.333
			c5.888,0,10.667-4.779,10.667-10.667S155.221,256,149.333,256H128c-41.173,0-74.667,33.493-74.667,74.667
			S86.827,405.333,128,405.333h21.333c5.888,0,10.667-4.779,10.667-10.667S155.221,384,149.333,384z"/>
	</g>
</g>
<g>
</g>
<g>
</g>
<g>
</g>
<g>
</g>
<g>
</g>
<g>
</g>
<g>
</g>
<g>
</g>
<g>
</g>
<g>
</g>
<g>
</g>
<g>
</g>
<g>
</g>
<g>
</g>
<g>
</g>
</svg>
