<?xml version="1.0" encoding="iso-8859-1"?>
<!-- Generator: Adobe Illustrator 19.0.0, SVG Export Plug-In . SVG Version: 6.00 Build 0)  -->
<svg version="1.1" id="Capa_1" xmlns="http://www.w3.org/2000/svg" xmlns:xlink="http://www.w3.org/1999/xlink" x="0px" y="0px"
	 viewBox="0 0 480 480" style="enable-background:new 0 0 480 480;" xml:space="preserve">
<g>
	<g>
		<path d="M336,88.408V88c0-48.52-39.48-88-88-88h-80c-4.424,0-8,3.584-8,8v128c0,27.392,12.584,51.888,32.272,68.04
			C143.712,225.76,112,273.736,112,328v144c0,4.416,3.576,8,8,8h256c4.424,0,8-3.584,8-8v-83.336
			c51.664-21.888,88-73.112,88-132.664v-24C472,155.296,411.672,92.592,336,88.408z M336,160c35.288,0,64,28.712,64,64
			c0,21.336-10.536,40.216-26.64,51.856c-13.296-31.896-38.192-57.704-69.584-71.856c13.68-11.24,23.848-26.528,28.816-44H336z
			 M176,136V16h72c39.704,0,72,32.304,72,72v8v40c0,27.152-15.12,50.832-37.376,63.096c-2.536,1.392-5.152,2.616-7.824,3.68
			c-0.192,0.08-0.4,0.144-0.592,0.216c-16.688,6.424-35.72,6.424-52.4,0c-0.2-0.08-0.4-0.144-0.6-0.216
			c-2.68-1.056-5.296-2.288-7.824-3.68C191.12,186.832,176,163.152,176,136z M368.008,464H128V328
			c0-51.44,32.24-96.576,80.568-113.344c0.568,0.28,1.168,0.472,1.744,0.744c2.152,1.024,4.344,1.968,6.592,2.816
			c0.648,0.24,1.288,0.488,1.936,0.712C227.984,222.152,237.768,224,248,224c10.216,0,19.992-1.84,29.12-5.056
			c0.672-0.232,1.344-0.488,2.008-0.736c2.224-0.848,4.4-1.776,6.544-2.8c0.576-0.272,1.184-0.464,1.752-0.752
			c32.8,11.408,59.16,36.68,72.016,68.832c-0.712,0.28-1.432,0.536-2.152,0.792c-0.96,0.344-1.912,0.696-2.88,0.992
			c-1.2,0.36-2.424,0.648-3.648,0.936c-0.752,0.176-1.496,0.392-2.256,0.544c-1.456,0.288-2.944,0.488-4.432,0.68
			c-0.584,0.072-1.152,0.192-1.736,0.248c-2.088,0.208-4.2,0.32-6.336,0.32h-80v-32c0-3.232-1.944-6.152-4.936-7.392
			c-3-1.24-6.432-0.56-8.72,1.736l-88,88c-3.128,3.128-3.128,8.184,0,11.312l88,88c0.696,0.696,1.512,1.192,2.376,1.584
			c0.24,0.112,0.488,0.176,0.736,0.264c0.664,0.224,1.344,0.36,2.048,0.408c0.168,0,0.328,0.088,0.496,0.088
			c0.096,0,0.192-0.056,0.296-0.056c0.936-0.032,1.872-0.176,2.768-0.552c2.992-1.24,4.936-4.16,4.936-7.392v-32h72
			c4.24,0,8.464-0.264,12.688-0.64c1.536-0.136,3.064-0.312,4.584-0.496c2.52-0.312,5.032-0.704,7.536-1.152
			c5.096-0.888,10.096-2.016,14.992-3.424c0.072-0.024,0.136-0.032,0.208-0.056V464z M456,256c0,54.896-34.8,101.688-83.448,119.84
			c-3.328,1.24-6.68,2.344-10.056,3.304c-0.536,0.152-1.08,0.272-1.624,0.416c-3.12,0.84-6.256,1.584-9.4,2.184
			c-1.408,0.264-2.84,0.44-4.264,0.656c-2.384,0.368-4.768,0.76-7.16,0.992C336.072,383.76,332.064,384,328,384h-80
			c-4.424,0-8,3.584-8,8v20.688L171.312,344L240,275.312V296c0,4.416,3.576,8,8,8h88c3.088,0,6.12-0.216,9.12-0.56
			c0.712-0.08,1.408-0.224,2.12-0.328c2.352-0.336,4.672-0.752,6.96-1.288c0.768-0.176,1.52-0.384,2.28-0.584
			c2.248-0.6,4.448-1.288,6.616-2.064c0.72-0.256,1.44-0.512,2.152-0.792c2.368-0.936,4.68-1.976,6.928-3.128
			c0.344-0.176,0.72-0.296,1.056-0.48c0.04-0.024,0.064-0.064,0.112-0.088C398.68,281.256,416,254.624,416,224
			c0-44.112-35.888-80-80-80v-8v-31.752c66.864,4.144,120,59.864,120,127.752V256z"/>
	</g>
</g>
<g>
	<g>
		<path d="M280,136c0,17.648-14.352,32-32,32v16c26.472,0,48-21.528,48-48H280z"/>
	</g>
</g>
<g>
	<g>
		<path d="M216,80c-13.232,0-24,10.768-24,24h16c0-4.408,3.584-8,8-8s8,3.592,8,8h16C240,90.768,229.232,80,216,80z"/>
	</g>
</g>
<g>
	<g>
		<path d="M272,80c-13.232,0-24,10.768-24,24h16c0-4.408,3.584-8,8-8c4.416,0,8,3.592,8,8h16C296,90.768,285.232,80,272,80z"/>
	</g>
</g>
<g>
	<g>
		<path d="M112,48C89.944,48,72,30.056,72,8c0-4.416-3.576-8-8-8s-8,3.584-8,8c0,22.056-17.944,40-40,40c-4.424,0-8,3.584-8,8
			s3.576,8,8,8c22.056,0,40,17.944,40,40c0,4.416,3.576,8,8,8s8-3.584,8-8c0-22.056,17.944-40,40-40c4.424,0,8-3.584,8-8
			S116.424,48,112,48z M64,75.176C59.272,67.336,52.664,60.728,44.824,56C52.664,51.272,59.272,44.664,64,36.824
			C68.728,44.664,75.336,51.272,83.176,56C75.336,60.728,68.728,67.336,64,75.176z"/>
	</g>
</g>
<g>
</g>
<g>
</g>
<g>
</g>
<g>
</g>
<g>
</g>
<g>
</g>
<g>
</g>
<g>
</g>
<g>
</g>
<g>
</g>
<g>
</g>
<g>
</g>
<g>
</g>
<g>
</g>
<g>
</g>
</svg>
