<?xml version="1.0" encoding="iso-8859-1"?>
<!-- Generator: Adobe Illustrator 19.0.0, SVG Export Plug-In . SVG Version: 6.00 Build 0)  -->
<svg version="1.1" id="Layer_1" xmlns="http://www.w3.org/2000/svg" xmlns:xlink="http://www.w3.org/1999/xlink" x="0px" y="0px"
	 viewBox="0 0 512 512" style="enable-background:new 0 0 512 512;" xml:space="preserve">
<g>
	<g>
		<g>
			<path d="M343.345,237.774c-4.644-0.563-8.859,2.746-9.42,7.387c-1.441,11.913-0.632,23.886,2.405,35.592
				c1.153,5.472,2.806,10.861,4.91,16.02c1.34,3.282,4.502,5.268,7.84,5.268c1.065,0,2.148-0.202,3.195-0.63
				c4.328-1.766,6.406-6.707,4.64-11.035c-1.745-4.276-3.109-8.748-4.056-13.289c-0.029-0.14-0.062-0.279-0.098-0.417
				c-2.54-9.701-3.222-19.619-2.029-29.477C351.292,242.553,347.986,238.336,343.345,237.774z"/>
			<path d="M505.529,68.887c-5.263-3.962-12.326-4.361-17.999-1.016l-43.888,25.872L425.77,63.424l42.946-25.318
				c5.673-3.344,8.745-9.719,7.827-16.241c-0.919-6.521-5.633-11.799-12.009-13.447L444.17,3.159
				c-8.258-2.134-16.851-0.922-24.198,3.409c-4.027,2.373-5.368,7.563-2.993,11.591c2.375,4.027,7.563,5.367,11.591,2.993
				c3.452-2.034,7.488-2.604,11.368-1.601l18.719,4.835l-42.089,24.812c-7.707,4.543-10.281,14.509-5.739,22.216l18.587,31.531
				c4.544,7.706,14.51,10.28,22.217,5.737l43.031-25.366l-5.22,20.213c-1.002,3.88-3.455,7.136-6.906,9.171l-27.216,16.044
				c-3.45,2.035-7.489,2.603-11.367,1.602l-39.778-10.273c-2.167-0.56-4.466-0.239-6.397,0.893l-12.835,7.522
				c-0.711-0.541-1.436-1.063-2.176-1.565c-0.743-0.509-1.501-0.998-2.274-1.466c-0.479-0.292-0.967-0.563-1.454-0.839
				c-0.216-0.121-0.427-0.248-0.644-0.366c-0.669-0.365-1.346-0.708-2.028-1.039c-0.038-0.018-0.076-0.038-0.114-0.056
				c-3.003-1.45-6.127-2.58-9.326-3.378c-0.281-0.071-0.563-0.138-0.845-0.203c-0.424-0.098-0.848-0.196-1.274-0.283
				c-0.699-0.142-1.399-0.271-2.101-0.381c-0.209-0.033-0.419-0.058-0.628-0.087c-0.631-0.091-1.262-0.169-1.895-0.235
				c-0.196-0.02-0.393-0.039-0.589-0.058c-1.687-0.153-3.377-0.216-5.065-0.187c-0.052,0.001-0.104,0.003-0.156,0.005
				c-0.866,0.018-1.73,0.058-2.592,0.123c-0.01,0.001-0.019,0.001-0.029,0.002c-1.75,0.134-3.493,0.368-5.224,0.699
				c-0.1,0.019-0.202,0.038-0.302,0.058c-0.811,0.16-1.621,0.336-2.425,0.539l-2.201-5.357l38.706-22.682
				c1.939-1.136,3.346-2.996,3.912-5.171c0.133-0.512,0.218-1.034,0.253-1.554l9.978-38.635c1.002-3.879,3.455-7.136,6.902-9.169
				l0.298-0.175c4.028-2.372,5.371-7.56,2.999-11.589c-2.373-4.029-7.564-5.373-11.588-2.999l-0.301,0.177
				c-7.347,4.332-12.567,11.264-14.7,19.521l-9.522,36.87L333.358,99.62c-1.873-2.178-3.97-4.128-6.256-5.826
				c-0.098-0.073-0.2-0.144-0.299-0.217c-0.658-0.48-1.329-0.94-2.017-1.377c-0.41-0.262-0.822-0.52-1.241-0.767
				c-0.249-0.146-0.5-0.289-0.754-0.429c-1.313-0.735-2.67-1.407-4.079-1.995c-9.588-4.002-20.162-4.029-29.773-0.076
				c-11.775,4.843-19.908,14.84-22.865,26.315c-0.181-0.094-0.374-0.168-0.556-0.26c-0.388-0.191-0.782-0.37-1.176-0.549
				c-0.412-0.188-0.81-0.398-1.23-0.574c-9.59-4.003-20.163-4.03-29.773-0.077c-11.163,4.591-19.128,13.931-22.413,24.799
				c-0.243-0.135-0.494-0.256-0.74-0.386c-0.419-0.223-0.836-0.45-1.263-0.659c-0.184-0.088-0.371-0.169-0.556-0.255
				c-0.726-0.34-1.46-0.657-2.205-0.951c-0.005-0.002-0.01-0.005-0.015-0.006c-9.061-3.588-19.452-3.806-29.111,0.166
				c-14.794,6.085-23.839,20.304-24.092,35.37c-0.012-0.003-0.025-0.007-0.036-0.01c-8.268-2.526-17.39-2.311-25.831,1.16
				c-19.594,8.06-28.985,30.561-20.933,50.159l2.344,5.705c-0.462-0.146-0.922-0.296-1.393-0.418l-33.729-8.71
				c-7.051-1.822-14.726-0.738-20.996,2.958l-30.009,17.691c-6.374,3.758-10.905,9.774-12.755,16.938l-8.714,33.73
				c-1.851,7.165-0.8,14.622,2.958,20.996l17.691,30.009c3.758,6.375,9.773,10.906,16.939,12.755l33.728,8.71
				c2.262,0.585,4.592,0.88,6.928,0.88c4.944,0,9.81-1.327,14.068-3.838l30.01-17.691c6.374-3.758,10.904-9.772,12.755-16.938
				l8.055-31.191l22.874,53.899c5.913,14.189,15.63,26.333,28.101,35.123c0.23,0.163,0.469,0.314,0.714,0.453l56.19,31.72
				l3.742,21.641c0.797,4.607,5.177,7.692,9.783,6.898c4.607-0.796,7.695-5.176,6.898-9.783l-4.426-25.596
				c-0.432-2.503-1.967-4.68-4.179-5.928l-59.305-33.479c-9.697-6.928-17.262-16.45-21.914-27.611l-20.204-47.608
				c4.693-0.115,9.286-1.072,13.667-2.875c14.724-6.056,23.684-20.266,23.814-35.272c3.618,1.098,7.437,1.683,11.363,1.683
				c5.08,0,10.053-0.986,14.783-2.932c11.24-4.623,19.157-13.945,22.425-24.762c5.698,3.204,12.234,4.986,19.094,4.986
				c5.08,0,10.053-0.986,14.783-2.932c4.477-1.842,8.471-4.442,11.931-7.726c2.534-0.401,5.057-1.088,7.527-2.101l23.383-9.597
				c3.329-1.367,7.028-1.332,10.413,0.095c3.606,1.52,6.415,4.399,7.91,8.107c1.331,3.298,4.502,5.3,7.853,5.3
				c1.054,0,2.126-0.199,3.163-0.616c4.335-1.748,6.432-6.681,4.684-11.016c-3.195-7.919-9.243-14.089-17.034-17.373
				c-7.572-3.193-15.888-3.247-23.417-0.158l-23.383,9.597c-2.139,0.879-4.361,1.271-6.556,1.245
				c-0.093-0.001-0.186,0.006-0.278,0.003c-5.618-0.156-11.016-3.108-14.331-8.02c-0.072-0.107-0.143-0.217-0.213-0.326
				c-0.232-0.36-0.451-0.732-0.661-1.114c-0.073-0.133-0.15-0.264-0.22-0.4c-0.258-0.498-0.503-1.008-0.721-1.537l-3.547-8.631
				c-0.631-1.537-1.034-3.121-1.245-4.715c-0.423-3.189-0.026-6.423,1.231-9.429c0.668-1.597,1.547-3.056,2.606-4.348
				c1.765-2.153,4.03-3.841,6.646-4.913l66.04-27.051c7.567-3.1,15.953-3.026,23.612,0.206c1.423,0.6,2.786,1.3,4.091,2.082
				c0.111,0.068,0.223,0.13,0.333,0.199c0.217,0.133,0.427,0.275,0.64,0.413c1.85,1.227,3.604,2.65,5.216,4.282
				c0.044,0.044,0.095,0.077,0.14,0.12c2.982,3.055,5.375,6.714,7.036,10.83l17.412,43.172c2.948,7.309,4.061,15.284,3.215,23.064
				l-9.799,90.21c-0.067,0.607-0.067,1.22,0,1.827l3.948,36.388c0.141,1.304,0.585,2.557,1.292,3.661l81.372,126.696
				c2.28,3.548,0.959,6.799,0.286,8.032c-0.674,1.232-2.695,4.1-6.913,4.1H289.028c-3.843,0-7.107-2.748-7.761-6.533l-3.523-20.374
				c-0.796-4.606-5.172-7.69-9.783-6.898c-4.607,0.797-7.695,5.177-6.898,9.783l3.523,20.373
				c2.062,11.924,12.341,20.578,24.442,20.578h186.866c9.077,0,17.419-4.949,21.769-12.914c4.351-7.966,4.006-17.658-0.898-25.296
				L416.47,346.645l-3.633-33.491l9.7-89.297c1.076-9.906-0.216-20.027-3.68-29.415c-0.102-0.565-0.26-1.129-0.483-1.683
				l-17.412-43.172c-1.188-2.946-2.635-5.731-4.301-8.345l6.664-3.906l36.396,9.4c2.662,0.687,5.36,1.028,8.039,1.028
				c5.63,0,11.182-1.502,16.159-4.436l27.216-16.044c7.347-4.33,12.568-11.263,14.7-19.521l5.645-21.858
				C513.127,79.528,510.79,72.848,505.529,68.887z M128.588,284.341c0.109,1.23,0.009,2.458-0.299,3.651l-8.71,33.729
				c-0.72,2.788-2.482,5.127-4.961,6.589L84.607,346c-2.438,1.438-5.419,1.861-8.166,1.15l-33.729-8.71
				c-2.786-0.72-5.126-2.482-6.588-4.961L18.433,303.47c-1.462-2.479-1.87-5.38-1.15-8.166l8.712-33.73
				c0.72-2.786,2.482-5.126,4.96-6.588l30.01-17.691c1.657-0.976,3.548-1.493,5.472-1.493c0.909,0,1.815,0.115,2.694,0.342
				l33.729,8.71c1.26,0.325,2.445,0.876,3.522,1.638c2.714,1.917,6.297,2.07,9.164,0.39l0.271-0.159l9.79,23.827
				c0.356,0.866,0.752,1.71,1.168,2.544c0.135,0.272,0.28,0.538,0.422,0.807c0.297,0.56,0.606,1.112,0.93,1.656
				c0.176,0.297,0.35,0.595,0.534,0.887c0.366,0.578,0.749,1.142,1.144,1.7c0.117,0.166,0.22,0.342,0.34,0.506
				C128.982,280.268,128.404,282.28,128.588,284.341z M169.526,275.962c-2.622,1.078-5.371,1.624-8.171,1.624
				c-3.206,0-6.283-0.708-9.063-1.994c-0.144-0.079-0.273-0.181-0.423-0.252c-1.177-0.563-2.29-1.23-3.333-1.985
				c-0.035-0.026-0.071-0.051-0.105-0.077c-0.049-0.037-0.09-0.081-0.14-0.119c-0.317-0.236-0.621-0.485-0.923-0.738
				c-0.113-0.097-0.23-0.188-0.341-0.288c-0.098-0.085-0.19-0.175-0.286-0.262c-2.249-2.083-4.074-4.661-5.294-7.63l-19.466-47.374
				c-4.506-10.968,0.748-23.559,11.714-28.069c2.622-1.079,5.371-1.625,8.171-1.625c2.615,0,5.142,0.476,7.495,1.346
				c0.198,0.076,0.397,0.147,0.593,0.227c0.211,0.085,0.418,0.178,0.625,0.27c3.916,1.77,7.329,4.695,9.628,8.596
				c0.03,0.052,0.067,0.099,0.099,0.15l14.852,36.145c0.609,1.484,1.324,2.9,2.094,4.274l3.99,9.709
				C185.747,258.86,180.492,271.451,169.526,275.962z M219.486,239.441c-2.677,1.102-5.484,1.659-8.344,1.659
				c-7.706,0-14.686-3.974-18.649-10.363l-15.061-36.653c-0.607-1.477-1.318-2.887-2.086-4.253l-3.654-8.892
				c-4.601-11.198,0.765-24.055,11.961-28.66c2.677-1.1,5.484-1.659,8.344-1.659c3.614,0,7.062,0.885,10.121,2.469
				c0.368,0.195,0.738,0.388,1.096,0.604c0.076,0.045,0.15,0.094,0.226,0.14c3.421,2.127,6.295,5.21,8.16,9.083
				c0.073,0.151,0.158,0.293,0.238,0.439c0.161,0.437,0.32,0.875,0.5,1.309l19.122,46.537c0.185,0.449,0.401,0.879,0.6,1.318
				C235.466,223.279,230.108,235.072,219.486,239.441z M271.558,149.049c-8.373,3.43-14.928,9.963-18.455,18.396
				c-1.816,4.343-2.727,8.921-2.731,13.514c-0.002,2.009,0.179,4.02,0.525,6.015c0.444,2.566,1.162,5.107,2.179,7.581l1.773,4.316
				l1.773,4.316c0.003,0.008,0.007,0.015,0.01,0.021c0.28,0.681,0.585,1.343,0.902,1.996c0.104,0.214,0.211,0.424,0.318,0.635
				c0.232,0.457,0.474,0.906,0.725,1.349c0.125,0.223,0.247,0.449,0.378,0.669c0.326,0.551,0.665,1.09,1.018,1.618
				c0.226,0.34,0.465,0.667,0.701,0.998c0.143,0.199,0.286,0.398,0.432,0.594c2.098,2.806,4.563,5.268,7.331,7.303
				c-0.332,0.013-0.661,0.021-0.991,0.021c-8.335,0-15.823-4.643-19.559-11.968c-0.24-0.695-0.498-1.388-0.78-2.077l-19.122-46.537
				c-0.185-0.45-0.401-0.88-0.6-1.32c-3.404-10.759,1.955-22.55,12.575-26.92c2.676-1.1,5.483-1.659,8.342-1.659
				c3.277,0,6.421,0.723,9.261,2.039c0.135,0.064,0.272,0.126,0.405,0.193c0.316,0.155,0.628,0.318,0.936,0.488
				c4.297,2.408,7.644,6.154,9.544,10.779l3.135,7.629L271.558,149.049z M317.416,130.265l-30.037,12.304l-3.779-9.195
				c-4.601-11.198,0.765-24.054,11.961-28.659c2.677-1.1,5.484-1.659,8.344-1.659c3.277,0,6.422,0.723,9.261,2.039
				c0.134,0.063,0.271,0.125,0.404,0.192c0.316,0.155,0.625,0.318,0.933,0.486c4.297,2.408,7.645,6.154,9.546,10.78l3.867,9.41
				L317.416,130.265z"/>
			<path d="M102.271,264.055c-2.466-4.183-6.413-7.154-11.114-8.37l-17.033-4.399c-4.626-1.195-9.664-0.484-13.778,1.941
				l-15.152,8.933c-4.183,2.466-7.155,6.413-8.371,11.115l-4.398,17.033c-1.214,4.702-0.525,9.595,1.941,13.778l8.933,15.153
				c2.466,4.184,6.414,7.155,11.115,8.37l17.031,4.398c1.483,0.383,3.012,0.578,4.545,0.578c3.244,0,6.436-0.87,9.233-2.518
				l15.152-8.933c4.184-2.466,7.156-6.414,8.371-11.115l4.398-17.033c1.214-4.702,0.525-9.594-1.941-13.778L102.271,264.055z
				 M96.755,288.753l-4.398,17.033c-0.083,0.323-0.288,0.594-0.577,0.764l-15.152,8.933c-0.282,0.166-0.631,0.216-0.948,0.134
				l-17.031-4.398c-0.318-0.082-0.597-0.292-0.764-0.576l-8.934-15.155c-0.169-0.288-0.217-0.624-0.133-0.947l4.398-17.03
				c0.084-0.325,0.288-0.596,0.577-0.766l15.154-8.934c0.192-0.113,0.412-0.173,0.635-0.173c0.105,0,0.21,0.014,0.312,0.04
				l17.03,4.398c0.325,0.085,0.597,0.289,0.766,0.577l8.932,15.152C96.791,288.093,96.838,288.43,96.755,288.753z"/>
		</g>
	</g>
</g>
<g>
</g>
<g>
</g>
<g>
</g>
<g>
</g>
<g>
</g>
<g>
</g>
<g>
</g>
<g>
</g>
<g>
</g>
<g>
</g>
<g>
</g>
<g>
</g>
<g>
</g>
<g>
</g>
<g>
</g>
</svg>
