<?xml version="1.0" encoding="UTF-8"?>
<svg width="407px" height="174px" viewBox="0 0 407 174" version="1.1" xmlns="http://www.w3.org/2000/svg" xmlns:xlink="http://www.w3.org/1999/xlink">
    <!-- Generator: Sketch 43.2 (39069) - http://www.bohemiancoding.com/sketch -->
    <title>traily copy</title>
    <desc>Created with Sketch.</desc>
    <defs></defs>
    <g id="Page-1" stroke="none" stroke-width="1" fill="none" fill-rule="evenodd">
        <g id="White-Logo">
            <path d="M49.515625,114.679688 C53.2187685,114.679688 57.6484117,113.765634 62.8046875,111.9375 L62.8046875,131.976562 C59.101544,133.57032 55.5742355,134.707028 52.2226563,135.386719 C48.871077,136.06641 44.945335,136.40625 40.4453125,136.40625 C31.2108913,136.40625 24.5547079,134.144554 20.4765625,129.621094 C16.3984171,125.097634 14.359375,118.148484 14.359375,108.773438 L14.359375,75.9375 L4.7265625,75.9375 L4.7265625,64.7578125 L16.9609375,56.109375 L24.0625,39.375 L42.0625,39.375 L42.0625,55.3359375 L61.609375,55.3359375 L61.609375,75.9375 L42.0625,75.9375 L42.0625,106.945312 C42.0625,112.101588 44.5468502,114.679688 49.515625,114.679688 Z M124.820312,53.9296875 C127.210949,53.9296875 129.484364,54.1171856 131.640625,54.4921875 L133.1875,54.7734375 L130.726562,80.71875 C128.476551,80.1562472 125.359395,79.875 121.375,79.875 C115.37497,79.875 111.015639,81.24608 108.296875,83.9882812 C105.578111,86.7304825 104.21875,90.6796617 104.21875,95.8359375 L104.21875,135 L76.7265625,135 L76.7265625,55.3359375 L97.1875,55.3359375 L101.476562,68.0625 L102.8125,68.0625 C105.109386,63.8437289 108.308573,60.4336068 112.410156,57.8320312 C116.511739,55.2304557 120.648417,53.9296875 124.820312,53.9296875 Z M193.375,135 L188.101562,124.453125 L187.539062,124.453125 C183.835919,129.046898 180.062519,132.187492 176.21875,133.875 C172.374981,135.562508 167.40628,136.40625 161.3125,136.40625 C153.812463,136.40625 147.906272,134.156272 143.59375,129.65625 C139.281228,125.156228 137.125,118.828166 137.125,110.671875 C137.125,102.187458 140.078095,95.8711145 145.984375,91.7226562 C151.890655,87.574198 160.445256,85.2421901 171.648438,84.7265625 L184.9375,84.3046875 L184.9375,83.1796875 C184.9375,76.6171547 181.703157,73.3359375 175.234375,73.3359375 C169.421846,73.3359375 162.039107,75.3046678 153.085938,79.2421875 L145.140625,61.1015625 C154.421921,56.3202886 166.140554,53.9296875 180.296875,53.9296875 C190.515676,53.9296875 198.425753,56.4609122 204.027344,61.5234375 C209.628934,66.5859628 212.429688,73.664017 212.429688,82.7578125 L212.429688,135 L193.375,135 Z M258.79761,78.7014569 L258.79761,135.021002 L231.2849,135.021002 L231.30735,78.467621 C231.30735,78.467621 241.283103,90.0695593 245.114158,90.4948581 C248.945213,90.920157 258.79761,78.7014569 258.79761,78.7014569 Z M172.984375,117 C176.312517,117 179.160144,115.945323 181.527344,113.835938 C183.894543,111.726552 185.078125,108.984392 185.078125,105.609375 L185.078125,99.421875 L178.75,99.703125 C169.70308,100.031252 165.179688,103.359343 165.179688,109.6875 C165.179688,114.562524 167.781224,117 172.984375,117 Z M305.453125,135 L277.960938,135 L277.960938,25.59375 L305.453125,25.59375 L305.453125,135 Z M314.875,55.3359375 L343.84375,55.3359375 L357.34375,101.039062 C358.000003,103.429699 358.445311,106.312483 358.679688,109.6875 L359.242188,109.6875 C359.617189,106.453109 360.179684,103.6172 360.929688,101.179688 L374.78125,55.3359375 L402.835938,55.3359375 L371.335938,140.0625 C367.304667,150.843804 362.347686,158.460915 356.464844,162.914062 C350.582002,167.36721 342.906297,169.59375 333.4375,169.59375 C329.781232,169.59375 326.031269,169.195316 322.1875,168.398438 L322.1875,146.8125 C324.671887,147.375003 327.507797,147.65625 330.695312,147.65625 C333.132825,147.65625 335.265616,147.187505 337.09375,146.25 C338.921884,145.312495 340.515618,143.98829 341.875,142.277344 C343.234382,140.566398 344.687492,137.765644 346.234375,133.875 L314.875,55.3359375 Z" id="traily" fill="#FFFFFF"></path>
            <path d="M244.982324,9.19725734 C230.829442,9.19725734 219.357705,20.7722492 219.357705,35.0467311 C219.357705,36.944423 219.557561,38.7894872 219.9419,40.5695408 C223.038131,54.7047141 231.179959,66.9205253 242.362673,75.2171228 C243.097528,75.774357 244.016866,76.102506 245.006922,76.102506 C245.803271,76.102506 246.550425,75.8888996 247.193039,75.5205059 C247.472838,75.313091 247.749562,75.1087718 248.026285,74.9044526 C258.895379,66.6852486 266.8435,54.7263843 269.970479,40.8884026 C270.382489,39.0092851 270.610018,37.0527741 270.610018,35.0467311 C270.610018,20.7722492 259.138281,9.19725734 244.982324,9.19725734 Z" id="Pin-2" fill="#2A7AE2"></path>
            <ellipse id="Oval" fill="#FFFFFF" cx="245.002946" cy="35.7371082" rx="13.7962179" ry="13.8906111"></ellipse>
        </g>
    </g>
</svg>